<?xml version="1.0" encoding="UTF-8" standalone="no"?>
<svg
   xmlns:dc="http://purl.org/dc/elements/1.1/"
   xmlns:cc="http://creativecommons.org/ns#"
   xmlns:rdf="http://www.w3.org/1999/02/22-rdf-syntax-ns#"
   xmlns:svg="http://www.w3.org/2000/svg"
   xmlns="http://www.w3.org/2000/svg"
   xmlns:sodipodi="http://sodipodi.sourceforge.net/DTD/sodipodi-0.dtd"
   xmlns:inkscape="http://www.inkscape.org/namespaces/inkscape"
   version="1.1"
   id="svg2"
   xml:space="preserve"
   width="4000"
   height="2666.6667"
   viewBox="0 0 4000 2666.6667"
   sodipodi:docname="5556.eps"><metadata
     id="metadata8"><rdf:RDF><cc:Work
         rdf:about=""><dc:format>image/svg+xml</dc:format><dc:type
           rdf:resource="http://purl.org/dc/dcmitype/StillImage" /></cc:Work></rdf:RDF></metadata><defs
     id="defs6" /><sodipodi:namedview
     pagecolor="#ffffff"
     bordercolor="#666666"
     borderopacity="1"
     objecttolerance="10"
     gridtolerance="10"
     guidetolerance="10"
     inkscape:pageopacity="0"
     inkscape:pageshadow="2"
     inkscape:window-width="640"
     inkscape:window-height="480"
     id="namedview4" /><g
     id="g10"
     inkscape:groupmode="layer"
     inkscape:label="ink_ext_XXXXXX"
     transform="matrix(1.3333333,0,0,-1.3333333,0,2666.6667)"><g
       id="g12"
       transform="scale(0.1)"><path
         d="M 0,0 H 30000 V 20000 H 0 Z"
         style="fill:#ffffff;fill-opacity:1;fill-rule:nonzero;stroke:none"
         id="path14" /><path
         d="m 3493.7,2618.9 c 0,0 -3179.602,3413.9 -537.72,7109.9 2344.06,3279.3 5076.99,3055.1 7082.12,1724.4 854,-566.8 3316.2,-69.9 5411.8,3267 2857.8,4550.5 12764.2,1790.6 10958,-5210.5 -874.1,-3388.1 2660.2,-3511.3 859.3,-6898 l -23773.5,7.2"
         style="fill:#ebf3fa;fill-opacity:1;fill-rule:nonzero;stroke:none"
         id="path16" /><path
         d="m 19784.2,2651.2 h -5675.3 c -178,0 -323.6,145.5 -323.6,323.5 v 11349.4 c 0,177.9 145.6,323.5 323.6,323.5 h 5675.3 c 177.9,0 323.5,-145.6 323.5,-323.5 V 2974.7 c 0,-178 -145.6,-323.5 -323.5,-323.5"
         style="fill:#78acea;fill-opacity:1;fill-rule:nonzero;stroke:none"
         id="path18" /><path
         d="M 20441.9,14324 V 2974.6 c 0,-177.8 -145.6,-323.4 -323.6,-323.4 H 14443 c -178,0 -323.5,145.6 -323.5,323.4 V 14324 c 0,178 145.5,323.6 323.5,323.6 h 5675.3 c 178,0 323.6,-145.6 323.6,-323.6"
         style="fill:#afcdfb;fill-opacity:1;fill-rule:nonzero;stroke:none"
         id="path20" /><path
         d="m 18207.2,14193.5 h -1643.5 c -35.2,0 -63.9,28.8 -63.9,63.9 0,35.2 28.7,64 63.9,64 h 1643.5 c 35.2,0 63.9,-28.8 63.9,-64 0,-35.1 -28.7,-63.9 -63.9,-63.9"
         style="fill:#8fb5ef;fill-opacity:1;fill-rule:nonzero;stroke:none"
         id="path22" /><path
         d="m 16271.8,14193.5 c -35.2,0 -63.9,28.8 -63.9,63.9 0,35.2 28.7,64 63.9,64 35.2,0 64,-28.8 64,-64 0,-35.1 -28.8,-63.9 -64,-63.9"
         style="fill:#8fb5ef;fill-opacity:1;fill-rule:nonzero;stroke:none"
         id="path24" /><path
         d="m 17771.4,3314 c 0,-113.2 -45.7,-215.8 -119.6,-290.3 -74.7,-75.5 -178.4,-122.1 -292.9,-122.1 -227.7,0 -412.4,184.7 -412.4,412.4 0,146.5 76.3,275 191.4,348.1 63.8,40.7 139.7,64.3 221,64.3 227.8,0 412.5,-184.6 412.5,-412.4"
         style="fill:#95c0f4;fill-opacity:1;fill-rule:nonzero;stroke:none"
         id="path26" /><path
         d="m 14498.1,3929.2 h 5606.4 v 9979.37 h -5606.4 z"
         style="fill:#95c0f4;fill-opacity:1;fill-rule:nonzero;stroke:none"
         id="path28" /><path
         d="m 17651.8,3023.7 c -74.7,-75.5 -178.4,-122.1 -292.9,-122.1 -227.7,0 -412.4,184.7 -412.4,412.4 0,146.5 76.3,275 191.4,348.1 40.4,-175.5 160.3,-469.2 513.9,-638.4"
         style="fill:#8cbaf1;fill-opacity:1;fill-rule:nonzero;stroke:none"
         id="path30" /><path
         d="m 20023.9,9170.8 h -5217.6 c -44.3,0 -80.6,47 -80.6,104.4 V 12611 c 0,57.5 36.3,104.5 80.6,104.5 h 2608.8 2595.6 13.2 c 44.4,0 80.6,-47 80.6,-104.5 V 9275.2 c 0,-57.4 -36.2,-104.4 -80.6,-104.4"
         style="fill:#7baeeb;fill-opacity:1;fill-rule:nonzero;stroke:none"
         id="path32" /><path
         d="m 14119.5,5118.2 h -110 c -34.6,0 -62.9,47 -62.9,104.3 v 3335.9 c 0,57.5 28.3,104.5 62.9,104.5 h 110 V 5118.2"
         style="fill:#78acea;fill-opacity:1;fill-rule:nonzero;stroke:none"
         id="path34" /><path
         d="m 14119.5,5118.2 h 378.602 V 8662.9 H 14119.5 Z"
         style="fill:#7dafec;fill-opacity:1;fill-rule:nonzero;stroke:none"
         id="path36" /><path
         d="m 18077.3,5118.2 h -3579.2 v 3544.7 h 3579.2 c 34.6,0 62.9,-47 62.9,-104.5 V 5222.5 c 0,-57.3 -28.3,-104.3 -62.9,-104.3"
         style="fill:#7baeeb;fill-opacity:1;fill-rule:nonzero;stroke:none"
         id="path38" /><path
         d="M 22007.4,12911.5 V 9575.6 c 0,-57.3 -47,-104.3 -104.5,-104.3 h -6755.5 c -57.4,0 -104.3,47 -104.3,104.3 v 3335.9 c 0,57.5 46.9,104.5 104.3,104.5 h 6755.5 c 57.5,0 104.5,-47 104.5,-104.5"
         style="fill:#fcecdb;fill-opacity:1;fill-rule:nonzero;stroke:none"
         id="path40" /><path
         d="M 22007.3,12911.5 V 9575.7 c 0,-57.4 -54.6,-104.4 -121.4,-104.4 H 18525.2 V 13016 h 3360.7 c 66.8,0 121.4,-47 121.4,-104.5"
         style="fill:#f99746;fill-opacity:1;fill-rule:nonzero;stroke:none"
         id="path42" /><path
         d="m 20174.9,11721.1 h -1189 c -41.6,0 -75.7,34.1 -75.7,75.8 0,41.6 34.1,75.7 75.7,75.7 h 1189 c 41.6,0 75.7,-34.1 75.7,-75.7 0,-41.7 -34.1,-75.8 -75.7,-75.8"
         style="fill:#fcecdb;fill-opacity:1;fill-rule:nonzero;stroke:none"
         id="path44" /><path
         d="m 19881.1,11494 h -904.3 c -36.6,0 -66.6,30 -66.6,66.6 v 18.2 c 0,36.6 30,66.6 66.6,66.6 h 904.3 c 36.7,0 66.7,-30 66.7,-66.6 v -18.2 c 0,-36.6 -30,-66.6 -66.7,-66.6"
         style="fill:#fcecdb;fill-opacity:1;fill-rule:nonzero;stroke:none"
         id="path46" /><path
         d="m 19195.4,12543.7 c -21.4,30.1 -48.8,45.1 -82.1,45.1 -33.3,0 -60.7,-15 -82.2,-45.1 -21.5,-30 -32.2,-67.6 -32.2,-112.2 0,-45.1 10.7,-82.7 31.7,-112.8 21.5,-29.5 48.8,-44.5 82.7,-44.5 33.8,0 61.2,15 82.1,44.5 21.5,30.1 32.2,67.7 32.2,112.8 0,44.6 -10.7,82.2 -32.2,112.2 z m -193.8,25.8 c 28.4,37.6 66,56.4 111.7,56.4 45.6,0 82.7,-18.8 111.1,-55.8 28.5,-37.1 42.5,-83.3 42.5,-138.6 0,-55.3 -14,-101.5 -42.5,-138.5 -28.4,-37.1 -65.5,-55.9 -111.1,-55.9 -45.7,0 -83.3,18.8 -111.7,55.9 -28.5,37 -42.4,83.2 -42.4,138.5 0,54.8 13.9,101 42.4,138"
         style="fill:#fcecdb;fill-opacity:1;fill-rule:nonzero;stroke:none"
         id="path48" /><path
         d="m 19406.5,12563.1 c -17.2,-16.7 -25.8,-38.2 -25.8,-64.5 0,-25.7 8.6,-46.2 26.3,-61.7 17.7,-15.6 39.2,-23.1 65.5,-23.1 22,0 42.4,7 61.2,20.9 18.8,14 31.2,31.2 38.1,52.1 -6.4,64.5 -41.8,102 -100.4,102 -25.7,0 -47.2,-8.5 -64.9,-25.7 z m 166.9,16.1 c 25.3,-30.6 38.2,-74.1 38.2,-129.4 2.1,-117.1 -61.2,-213.8 -163.3,-212.7 -30.6,0 -57.4,7.5 -79.4,23.1 v 38.1 c 23.6,-16.1 48.8,-24.1 76.2,-24.1 89.1,0 126.2,81.1 127.8,160.5 -19.9,-33.8 -59.1,-55.8 -110.1,-55.8 -33.8,0 -62.8,11.3 -86.4,33.3 -23.1,22.5 -34.9,51.5 -34.9,86.4 0,37.1 12.3,67.2 36.5,91.3 24.7,24.2 55.3,36 91.3,36 44,0 78.9,-15.6 104.1,-46.7"
         style="fill:#fcecdb;fill-opacity:1;fill-rule:nonzero;stroke:none"
         id="path50" /><path
         d="m 19691,12288.1 c 10.8,10.8 29,10.8 39.8,0 10.7,-10.7 10.7,-29 0,-39.7 -10.8,-10.7 -29,-10.7 -39.8,0 -10.7,10.7 -10.7,29 0,39.7 z m 0,199.8 c 10.8,10.7 29,10.7 39.8,0 10.7,-10.7 10.7,-29 0,-39.7 -10.8,-10.8 -29,-10.8 -39.8,0 -10.7,10.7 -10.7,29 0,39.7"
         style="fill:#fcecdb;fill-opacity:1;fill-rule:nonzero;stroke:none"
         id="path52" /><path
         d="m 19876.8,12243.6 v 332.9 l -84.3,-48.3 v 38.1 l 88.6,53.1 h 34.9 v -375.8 h -39.2"
         style="fill:#fcecdb;fill-opacity:1;fill-rule:nonzero;stroke:none"
         id="path54" /><path
         d="m 20246.8,12543.7 c -21.5,30.1 -48.9,45.1 -82.2,45.1 -33.3,0 -60.6,-15 -82.1,-45.1 -21.5,-30 -32.2,-67.6 -32.2,-112.2 0,-45.1 10.7,-82.7 31.6,-112.8 21.5,-29.5 48.9,-44.5 82.7,-44.5 33.9,0 61.2,15 82.2,44.5 21.5,30.1 32.2,67.7 32.2,112.8 0,44.6 -10.7,82.2 -32.2,112.2 z m -193.9,25.8 c 28.5,37.6 66.1,56.4 111.7,56.4 45.7,0 82.7,-18.8 111.2,-55.8 28.4,-37.1 42.4,-83.3 42.4,-138.6 0,-55.3 -14,-101.5 -42.4,-138.5 -28.5,-37.1 -65.5,-55.9 -111.2,-55.9 -45.6,0 -83.2,18.8 -111.7,55.9 -28.4,37 -42.4,83.2 -42.4,138.5 0,54.8 14,101 42.4,138"
         style="fill:#fcecdb;fill-opacity:1;fill-rule:nonzero;stroke:none"
         id="path56" /><path
         d="m 20589.4,12445.5 h 115.4 c 53.2,0 83.8,25.2 83.8,68.7 0,44.6 -30.6,69.3 -83.8,69.3 h -115.4 z m -39.8,-201.9 v 375.8 h 157.9 c 75.2,0 120.3,-41.8 120.3,-104.1 0,-63.9 -45.1,-105.8 -120.3,-105.8 h -118.1 v -165.9 h -39.8"
         style="fill:#fcecdb;fill-opacity:1;fill-rule:nonzero;stroke:none"
         id="path58" /><path
         d="m 20906.7,12243.6 v 375.8 h 39.2 l 135.9,-182 135.8,182 h 38.7 v -375.8 h -39.2 v 315.7 l -123,-164.3 h -24.2 l -124,164.3 v -315.7 h -39.2"
         style="fill:#fcecdb;fill-opacity:1;fill-rule:nonzero;stroke:none"
         id="path60" /><path
         d="m 17047.9,9471.3 h -1900.5 c -57.4,0 -104.3,47 -104.3,104.3 v 2266.9 c 518.1,-612.1 1532.5,-1812.2 2004.8,-2371.2"
         style="fill:#f9e5d1;fill-opacity:1;fill-rule:nonzero;stroke:none"
         id="path62" /><path
         d="m 16771.3,11573.4 c -177.8,0 -321.9,144.1 -321.9,321.8 0,177.8 144.1,321.9 321.9,321.9 177.7,0 321.9,-144.1 321.9,-321.9 0,-177.7 -144.2,-321.8 -321.9,-321.8 z m 0,1003.5 c -380.3,0 -688.6,-308.3 -688.6,-688.7 0,-380.3 688.6,-1225.8 688.6,-1225.8 0,0 688.6,845.5 688.6,1225.8 0,380.4 -308.3,688.7 -688.6,688.7"
         style="fill:#f99746;fill-opacity:1;fill-rule:nonzero;stroke:none"
         id="path64" /><path
         d="m 16713.4,10090.9 h -1189 c -41.6,0 -75.7,34 -75.7,75.7 0,41.6 34.1,75.7 75.7,75.7 h 1189 c 41.6,0 75.7,-34.1 75.7,-75.7 0,-41.7 -34.1,-75.7 -75.7,-75.7"
         style="fill:#efcbab;fill-opacity:1;fill-rule:nonzero;stroke:none"
         id="path66" /><path
         d="m 16419.6,9863.7 h -904.3 c -36.6,0 -66.6,30 -66.6,66.6 v 18.2 c 0,36.7 30,66.7 66.6,66.7 h 904.3 c 36.6,0 66.6,-30 66.6,-66.7 v -18.2 c 0,-36.6 -30,-66.6 -66.6,-66.6"
         style="fill:#efcbab;fill-opacity:1;fill-rule:nonzero;stroke:none"
         id="path68" /><path
         d="M 18671.6,8814.5 V 5478.7 c 0,-57.5 -47,-104.4 -104.4,-104.4 h -6755.4 c -57.5,0 -104.5,46.9 -104.5,104.4 v 3335.8 c 0,57.4 47,104.3 104.5,104.3 h 6755.4 c 57.4,0 104.4,-46.9 104.4,-104.3"
         style="fill:#fcecdb;fill-opacity:1;fill-rule:nonzero;stroke:none"
         id="path70" /><path
         d="M 18671.6,8814.5 V 5478.7 c 0,-57.5 -47,-104.5 -104.4,-104.5 h -3004.6 v 3544.7 h 3004.6 c 57.4,0 104.4,-47 104.4,-104.4"
         style="fill:#f99746;fill-opacity:1;fill-rule:nonzero;stroke:none"
         id="path72" /><path
         d="m 17094.3,6424.1 c -59.7,0 -115.1,31.6 -145.4,83.4 l -444,759.1 c -47,80.3 -20,183.5 60.3,230.5 80.3,47 183.6,19.9 230.6,-60.4 l 284.8,-486.9 536.4,1103.5 c 40.7,83.7 141.5,118.6 225.2,77.9 83.7,-40.7 118.6,-141.5 77.9,-225.2 l -674.2,-1387 c -27.2,-56 -83,-92.4 -145.1,-94.8 -2.1,0 -4.3,-0.1 -6.5,-0.1"
         style="fill:#fcecdb;fill-opacity:1;fill-rule:nonzero;stroke:none"
         id="path74" /><path
         d="m 17094.3,8002.7 c -509.1,0 -923.2,-414.2 -923.2,-923.3 0,-509.1 414.1,-923.3 923.2,-923.3 509.2,0 923.3,414.2 923.3,923.3 0,509.1 -414.1,923.3 -923.3,923.3 z m 0,-1969.1 c -576.6,0 -1045.8,469.1 -1045.8,1045.8 0,576.7 469.2,1045.8 1045.8,1045.8 576.7,0 1045.9,-469.1 1045.9,-1045.8 0,-576.7 -469.2,-1045.8 -1045.9,-1045.8"
         style="fill:#fcecdb;fill-opacity:1;fill-rule:nonzero;stroke:none"
         id="path76" /><path
         d="m 13686,5374.3 h -1874.2 c -57.5,0 -104.5,46.9 -104.5,104.4 V 8060 L 13686,5374.3"
         style="fill:#f9e5d1;fill-opacity:1;fill-rule:nonzero;stroke:none"
         id="path78" /><path
         d="m 12873.2,7953.7 h -259.5 c -6.6,0 -11.9,5.3 -11.9,11.9 v 279 c 0,6.6 5.3,12 11.9,12 6.6,0 12,-5.4 12,-12 v -267 h 247.5 c 6.6,0 11.9,-5.4 11.9,-12 0,-6.6 -5.3,-11.9 -11.9,-11.9 z m -259.5,386.5 c -206.9,0 -374.6,-167.7 -374.6,-374.6 0,-206.9 167.7,-374.6 374.6,-374.6 206.9,0 374.6,167.7 374.6,374.6 0,206.9 -167.7,374.6 -374.6,374.6"
         style="fill:#f99746;fill-opacity:1;fill-rule:nonzero;stroke:none"
         id="path80" /><path
         d="m 14541.1,8105.1 h -1188.9 c -41.7,0 -75.8,34.1 -75.8,75.7 0,41.7 34.1,75.8 75.8,75.8 h 1188.9 c 41.7,0 75.7,-34.1 75.7,-75.8 0,-41.6 -34,-75.7 -75.7,-75.7"
         style="fill:#efcbab;fill-opacity:1;fill-rule:nonzero;stroke:none"
         id="path82" /><path
         d="m 14247.3,7878 h -904.2 c -36.7,0 -66.7,29.9 -66.7,66.6 v 18.2 c 0,36.6 30,66.6 66.7,66.6 h 904.2 c 36.7,0 66.7,-30 66.7,-66.6 v -18.2 c 0,-36.7 -30,-66.6 -66.7,-66.6"
         style="fill:#efcbab;fill-opacity:1;fill-rule:nonzero;stroke:none"
         id="path84" /><path
         d="m 12576.3,6399 c -87,0 -157.6,70.5 -157.6,157.6 0,87 70.6,157.6 157.6,157.6 87.1,0 157.6,-70.6 157.6,-157.6 0,-87.1 -70.5,-157.6 -157.6,-157.6 z m 0,491.4 c -186.2,0 -337.2,-151 -337.2,-337.2 0,-186.3 337.2,-600.3 337.2,-600.3 0,0 337.2,414 337.2,600.3 0,186.2 -151,337.2 -337.2,337.2"
         style="fill:#f99746;fill-opacity:1;fill-rule:nonzero;stroke:none"
         id="path86" /><path
         d="m 14450.7,6644.5 h -1189 c -41.6,0 -75.7,34.1 -75.7,75.8 0,41.6 34.1,75.7 75.7,75.7 h 1189 c 41.6,0 75.7,-34.1 75.7,-75.7 0,-41.7 -34.1,-75.8 -75.7,-75.8"
         style="fill:#efcbab;fill-opacity:1;fill-rule:nonzero;stroke:none"
         id="path88" /><path
         d="m 14156.9,6417.4 h -904.3 c -36.6,0 -66.6,30 -66.6,66.6 v 18.2 c 0,36.6 30,66.6 66.6,66.6 h 904.3 c 36.7,0 66.6,-30 66.6,-66.6 V 6484 c 0,-36.6 -29.9,-66.6 -66.6,-66.6"
         style="fill:#efcbab;fill-opacity:1;fill-rule:nonzero;stroke:none"
         id="path90" /><path
         d="m 5280.18,6910.9 c -24.76,608.9 -78.13,1138.6 -142.01,1508 -101.84,588.8 -193.51,927.6 -194.57,931.2 -13.41,51.8 -207.19,261.3 -638.03,254.8 -430.84,-6.4 -389.98,-281.2 -389.98,-281.2 -0.05,-9.3 1.18,-17.9 3.08,-24.4 4.16,-14.2 399.64,-1448.2 382.52,-3299.7 -0.24,-26 -3.16,-70.9 -1.32,-100.8 0.01,-0.1 998.43,-25.8 998.67,0 34.82,161.8 17.83,610.2 -18.36,1012.1"
         style="fill:#b7d3f3;fill-opacity:1;fill-rule:nonzero;stroke:none"
         id="path92" /><path
         d="m 5405.72,6008.7 c -0.3,-25.7 -13.92,-46.4 -30.52,-46.4 h -0.41 c -16.6,0.4 -29.82,21 -30.02,46.4 h -855.64 c -0.3,-25.7 -13.92,-46.4 -30.53,-46.4 h -0.4 c -16.9,0.4 -30.32,21.7 -30.12,47.8 4.97,530 -25.26,1024.9 -70.99,1461.7 -113.75,1089.3 -324.02,1817.4 -327.01,1827.5 -1.89,6.5 -3.08,15.1 -3.08,24.4 0,0 -40.86,274.7 389.94,281.2 430.91,6.5 624.69,-203 638.11,-254.8 0.79,-2.7 52.69,-194.6 121.69,-539.4 22.87,-114.3 47.53,-245.3 72.88,-391.8 63.83,-369.4 117.22,-899.1 141.98,-1507.9 36.19,-402 48.91,-740.5 14.12,-902.3"
         style="fill:#d2e3fc;fill-opacity:1;fill-rule:nonzero;stroke:none"
         id="path94" /><path
         d="m 4364.84,5962.3 h 3354.59 c 0,0 -78.13,316.1 -2020.89,269 -1374.84,-33.3 -1333.7,-269 -1333.7,-269"
         style="fill:#c5dcf8;fill-opacity:1;fill-rule:nonzero;stroke:none"
         id="path96" /><path
         d="m 4091.8,2660.3 c 388.95,1969 288.94,3177.2 288.44,3192.5 -0.98,30.3 54.9,57.8 84.96,58.8 30.43,0.5 164.67,8.9 180.21,-17 20.35,-34 98.68,-1522.7 -481.01,-3234.3 h -72.6"
         style="fill:#b7d3f3;fill-opacity:1;fill-rule:nonzero;stroke:none"
         id="path98" /><path
         d="m 7223.93,2660.3 c -388.95,1969 -288.94,3177.2 -288.44,3192.5 0.97,30.3 -54.9,57.8 -84.95,58.8 -30.44,0.5 -164.69,8.9 -180.22,-17 -20.35,-34 -98.68,-1522.7 481.01,-3234.3 h 72.6"
         style="fill:#b7d3f3;fill-opacity:1;fill-rule:nonzero;stroke:none"
         id="path100" /><path
         d="m 7844.65,2660.3 c -388.95,1969 -288.94,3177.2 -288.44,3192.5 0.98,30.3 -54.9,57.8 -84.96,58.8 -30.43,0.5 -164.68,8.9 -180.21,-17 -20.35,-34 -98.68,-1522.7 481.01,-3234.3 h 72.6"
         style="fill:#b7d3f3;fill-opacity:1;fill-rule:nonzero;stroke:none"
         id="path102" /><path
         d="m 4716.69,2660.3 c 388.95,1969 288.94,3177.2 288.45,3192.5 -0.98,30.3 54.89,57.8 84.95,58.8 30.43,0.5 164.68,8.9 180.21,-17 20.35,-34 98.68,-1522.7 -481,-3234.3 h -72.61"
         style="fill:#b7d3f3;fill-opacity:1;fill-rule:nonzero;stroke:none"
         id="path104" /><path
         d="M 7721.42,5861.4 H 4366.83 c -37.8,0 -68.71,30.9 -68.71,68.7 v 45.2 c 0,37.8 30.91,68.7 68.71,68.7 h 3354.59 c 37.79,0 68.71,-30.9 68.71,-68.7 v -45.2 c 0,-37.8 -30.92,-68.7 -68.71,-68.7"
         style="fill:#b7d3f3;fill-opacity:1;fill-rule:nonzero;stroke:none"
         id="path106" /><path
         d="m 7603.57,8890.9 1115.09,241.5 65.67,-160.1 c 0,0 -1230.38,-732.1 -1345.66,-696.2 -115.28,35.8 164.9,614.8 164.9,614.8"
         style="fill:#ffb27d;fill-opacity:1;fill-rule:nonzero;stroke:none"
         id="path108" /><path
         d="m 6589.79,3847.7 c -27.93,-32 -31.49,-67.7 -17.67,-105.9 l 0.27,-0.6 c 25.56,-70.6 110.01,-149.5 208.1,-228.2 12.54,-10.2 23.68,-19.4 33.4,-27.9 2.55,-2.2 5.1,-4.5 7.5,-6.7 1.97,-1.7 3.87,-3.6 5.77,-5.2 91.47,-84.3 57.05,-103.7 221.38,-274.8 187.38,-194.9 316.4,-198.4 353.1,-180.7 31.05,15.2 -32.04,118.6 -101.94,234.8 -3.39,5.6 -6.71,11.3 -10.18,16.9 -9.31,15.5 -18.56,31.2 -27.8,46.7 -81.92,139.9 -60.89,205.5 -41.47,413.7 15.79,169.1 263.17,945 263.17,945 l -359.09,61.9 c 0,0 -108.14,-617.9 -227.29,-713 -63.71,-50.7 -135.03,-51.4 -196.26,-89 -4.33,-2.6 -8.58,-5.2 -12.74,-8 -34.8,-23.1 -70.25,-46.9 -98.25,-79"
         style="fill:#ffb27d;fill-opacity:1;fill-rule:nonzero;stroke:none"
         id="path110" /><path
         d="m 6589.79,3847.7 c -27.93,-32 -31.49,-67.7 -17.67,-105.9 l 0.27,-0.6 c 31.3,-70.5 113.63,-149 208.44,-227.5 12.39,-10.3 23.33,-19.8 33.06,-28.6 2.55,-2.2 5.1,-4.5 7.5,-6.7 1.97,-1.7 3.87,-3.6 5.77,-5.2 91.47,-84.3 57.05,-103.7 221.38,-274.8 187.38,-194.9 316.4,-198.4 353.1,-180.7 31.05,15.2 -32.04,118.6 -101.94,234.8 -36.48,13.4 -205.92,82.2 -334.02,246.1 -112.83,144 -188.07,329 -264.9,436.1 -4.33,-2.6 -8.58,-5.2 -12.74,-8 -34.8,-23.1 -70.25,-46.9 -98.25,-79"
         style="fill:#1c468a;fill-opacity:1;fill-rule:nonzero;stroke:none"
         id="path112" /><path
         d="m 9485.28,4072 c 22.18,-110.8 180.17,-92.3 356.69,-49.2 176.53,43.1 134.56,-8.2 385.83,19.7 251.2,27.8 327.3,121.4 335,158.8 6.8,33.1 -117.3,44.8 -250.5,60.2 -16.7,1.8 -33.5,3.9 -50.3,6 -150.4,18.9 -260.5,115.9 -397.02,195.5 -129.34,75.5 -322.36,382.9 -322.36,382.9 l -344.54,-27.2 c 0,0 180.8,-274.7 250.73,-394 41.13,-70.3 38.94,-163.1 33.82,-234.8 -2.67,-39 -5.21,-78.9 2.65,-117.9"
         style="fill:#ffb27d;fill-opacity:1;fill-rule:nonzero;stroke:none"
         id="path114" /><path
         d="m 9841.97,4022.8 c 176.53,43.1 134.56,-8.2 385.83,19.7 251.2,27.8 327.3,121.4 335,158.8 6.8,33.1 -117.3,44.8 -250.5,60.2 l -1.2,-2.6 c 0,0 -150.7,-106.8 -359.8,-111.8 -170.44,-4.2 -350.97,44.7 -468.67,42.8 -2.67,-39 -5.21,-78.9 2.65,-117.9 22.18,-110.8 180.17,-92.3 356.69,-49.2"
         style="fill:#1c468a;fill-opacity:1;fill-rule:nonzero;stroke:none"
         id="path116" /><path
         d="m 8718.66,9132.4 c 0,0 82.09,201.1 172.38,209.3 90.3,8.2 377.61,53.4 398.13,12.4 20.52,-41.1 0,-188.9 -61.56,-242.2 -61.57,-53.4 -443.28,-139.6 -443.28,-139.6 l -65.67,160.1"
         style="fill:#ffb27d;fill-opacity:1;fill-rule:nonzero;stroke:none"
         id="path118" /><path
         d="M 8164.93,6275.1 7422.38,4276.7 c 0,0 -114.06,-11 -223.43,20.5 -100.64,29 -215.96,105.2 -215.96,105.2 0,0 184.2,1918.7 521.89,2317.8 337.7,399.1 660.05,-445.1 660.05,-445.1"
         style="fill:#163560;fill-opacity:1;fill-rule:nonzero;stroke:none"
         id="path120" /><path
         d="m 5227.99,7083.5 c 0,0 2133.63,721.4 2609.48,567.9 475.84,-153.5 1904.57,-2996 1904.57,-2996 0,0 -32.22,-42.9 -120.25,-75.9 -81.87,-30.7 -280.04,-28.7 -280.04,-28.7 0,0 -1289.39,1105.2 -1442.88,1427.5 -153.5,322.4 -214.91,629.3 -368.4,598.7 -153.5,-30.8 -1980.14,-752.2 -2394.58,-322.4 -414.45,429.8 -306.06,988.2 -306.06,988.2 l 398.16,-159.3"
         style="fill:#1c468a;fill-opacity:1;fill-rule:nonzero;stroke:none"
         id="path122" /><path
         d="m 6444.39,12170.7 c -92.22,52.5 -202.75,58.2 -280.05,53.6 19.91,20.6 59.05,28 59.05,28 -47.93,7.2 -154.93,-40.4 -154.93,-40.4 -666.82,257 -771.63,-724.9 -757.61,-953 13.9,-228.1 15.6,-490.6 -317.28,-695.2 -654.96,-402.5 -102.34,-1105.3 -102.34,-1105.3 5.16,-3 304.74,-511.1 304.74,-511.1 -16.83,184.3 833.68,1157.1 1277.41,1448.4 108.02,159 146.41,440 149.29,462.1 -18.65,-222.8 -56.76,-347.7 -90.81,-418.1 375.74,345.9 156.99,1592.1 -87.47,1731"
         style="fill:#b5453c;fill-opacity:1;fill-rule:nonzero;stroke:none"
         id="path124" /><path
         d="m 6447.11,10381.2 c 2.23,-1 -214.25,-113.4 -377.07,-68.8 -153.16,41.7 -253.23,240.3 -251.12,240.7 64.86,12.9 83.56,102.1 82.19,485.1 l 29.32,-5.8 493.03,-97.6 c 0,0 -11.22,-155.2 -11.56,-301.4 -0.33,-122.7 7.11,-239.1 35.21,-252.2"
         style="fill:#ffb27d;fill-opacity:1;fill-rule:nonzero;stroke:none"
         id="path126" /><path
         d="m 6423.46,10934.8 c 0,0 -11.22,-155.2 -11.56,-301.4 -275.88,7.8 -421.71,259.5 -481.47,399 l 493.03,-97.6"
         style="fill:#ed975d;fill-opacity:1;fill-rule:nonzero;stroke:none"
         id="path128" /><path
         d="m 5879.51,11086.1 c 0,0 -144.58,228.4 -179.28,423.8 -24.78,139.4 46.25,656.4 565.72,581.9 0,0 150.88,-14.9 292.69,-110.6 112.79,-76.2 275.56,-240.7 93.56,-691.8 l -47.27,-152.3 -725.42,-51"
         style="fill:#b5453c;fill-opacity:1;fill-rule:nonzero;stroke:none"
         id="path130" /><path
         d="m 6515.59,10796.4 c 0,0 -652.75,-10.8 -653.2,395.8 -0.45,406.6 -85,679.1 331.75,703.1 416.74,24.1 497.89,-131 531.05,-266.7 33.16,-135.6 -39.81,-818.9 -209.6,-832.2"
         style="fill:#ffb27d;fill-opacity:1;fill-rule:nonzero;stroke:none"
         id="path132" /><path
         d="m 6491.43,11905.3 c 0,0 -178.72,-477 -453,-547.6 -274.28,-70.5 -393.25,3 -393.25,3 0,0 210.38,167.1 254.04,458.9 0,0 457.4,312.7 592.21,85.7"
         style="fill:#b5453c;fill-opacity:1;fill-rule:nonzero;stroke:none"
         id="path134" /><path
         d="m 6447.13,11866.6 c 0,0 133.48,-106.5 166.02,-210.1 32.54,-103.5 47.18,-316.7 109.3,-309.4 0,0 134.65,324.2 -16.67,507.6 -160.46,194.5 -258.65,11.9 -258.65,11.9"
         style="fill:#b5453c;fill-opacity:1;fill-rule:nonzero;stroke:none"
         id="path136" /><path
         d="m 4993.57,8625.1 c -64.37,270 154.63,793.8 383.25,1227.5 207.44,393.1 422.76,712 442.1,700.6 547.1,-324.8 596.53,-54.8 596.53,-54.8 h 0.03 c 0.21,-0.1 496.99,-66 637.67,-308.2 174.54,-300.6 363.12,-1140.3 550.42,-1299.3 -28.76,-88 -16.42,-134.9 14.07,-244 6.54,-23.4 13.74,-45.6 21.68,-66.6 28.23,-76.8 63.54,-139 94.02,-193.1 -95.21,-57.9 -279.07,-167.9 -414.53,-88.8 -206.51,120.9 -367.62,488.8 -458.32,635.3 l -1.01,1.7 c -197.11,-1115.8 70.9,-1369.8 -64.77,-1487.5 -143.27,-124.2 -347.95,59.2 -798.23,-136 -295.35,-128.1 -705.21,-313.3 -981.11,-345.6 -144.71,-17 -252.67,8.2 -287.88,105.9 -102.33,284 388.89,1038.2 266.08,1552.9"
         style="fill:#1c468a;fill-opacity:1;fill-rule:nonzero;stroke:none"
         id="path138" /><path
         d="m 6370.48,11042.9 c 0,0 12.17,-51.7 140.67,-43.7 0,0 107.89,6.6 104.59,63.4 0,0 -104.62,40.4 -245.26,-19.7"
         style="fill:#ffffff;fill-opacity:1;fill-rule:nonzero;stroke:none"
         id="path140" /><path
         d="m 4727.49,7072.2 c 35.21,-97.7 143.17,-122.9 287.88,-105.9 190.96,83.2 1015.9,402.8 1006.69,619.4 -13.71,320.6 -158.62,330.8 -56.28,726.6 82.17,317.7 -680.07,908.5 -801.65,1037 -228.62,-433.7 -234.93,-454.2 -170.56,-724.2 122.81,-514.7 -368.41,-1268.9 -266.08,-1552.9"
         style="fill:#163560;fill-opacity:1;fill-rule:nonzero;stroke:none"
         id="path142" /><path
         d="m 4634.24,8228.6 c 146.3,205.5 298.71,314.1 398.97,368.7 -23.08,59.5 615.35,842.2 615.35,963.5 0,122.8 170.35,992.4 170.35,992.4 0,0 -531.96,-32.8 -716.15,-289.7 -230.34,-321.3 -708.74,-1557.6 -468.52,-2034.9"
         style="fill:#1c468a;fill-opacity:1;fill-rule:nonzero;stroke:none"
         id="path144" /><path
         d="m 5033.21,8597.3 1063.04,-277.4 -99.77,-179.1 c 0,0 -1293.69,9.1 -1362.24,87.8 -68.55,78.8 398.97,368.7 398.97,368.7"
         style="fill:#ffb27d;fill-opacity:1;fill-rule:nonzero;stroke:none"
         id="path146" /><path
         d="m 6860.49,8933.7 c 90.7,-146.5 251.81,-514.4 458.32,-635.3 135.46,-79.1 319.32,30.9 414.53,88.8 -30.48,54.1 -65.79,116.3 -94.02,193.1 -75.99,-17.4 -168.73,-39.6 -228.52,-57.7 -116.35,-35.2 -550.31,411.1 -550.31,411.1"
         style="fill:#163560;fill-opacity:1;fill-rule:nonzero;stroke:none"
         id="path148" /><path
         d="m 6096.25,8319.9 c 0,0 333.84,94.5 413.35,72.4 79.52,-22.1 351.96,-202.5 313.66,-251.5 -38.31,-48.9 -278.32,29.4 -388.76,14.6 -110.44,-14.9 -195.85,-69.4 -275.36,-57.6 -79.52,11.8 -162.66,43 -162.66,43 l 99.77,179.1"
         style="fill:#ffb27d;fill-opacity:1;fill-rule:nonzero;stroke:none"
         id="path150" /><path
         d="m 6096.25,8319.9 c 0,0 163.33,83.9 209.79,131.7 5.86,6 15.79,4.8 20.28,-2.3 12.46,-19.7 24.11,-57.6 -33.18,-95.3 -82.46,-54.2 -196.89,-34.1 -196.89,-34.1"
         style="fill:#ffb27d;fill-opacity:1;fill-rule:nonzero;stroke:none"
         id="path152" /><path
         d="M 7639.01,7850.3 H 6081.53 c 0,68.5 55.59,124.1 124.15,124.1 h 1433.33 v -124.1"
         style="fill:#ed7d2b;fill-opacity:1;fill-rule:nonzero;stroke:none"
         id="path154" /><path
         d="M 7634.54,9546.5 H 10042.5 L 9464.93,7850.3 H 7041.34 l 593.2,1696.2"
         style="fill:#ed7d2b;fill-opacity:1;fill-rule:nonzero;stroke:none"
         id="path156" /><path
         d="M 10078,9546.5 9500.35,7850.3 H 7076.83 L 7670,9546.5 h 2408"
         style="fill:#f99746;fill-opacity:1;fill-rule:nonzero;stroke:none"
         id="path158" /><path
         d="m 8779.73,8714.1 c -14.96,-64.8 -79.63,-117.4 -144.44,-117.4 -64.81,0 -105.22,52.6 -90.26,117.4 14.97,64.8 79.64,117.3 144.45,117.3 64.81,0 105.21,-52.5 90.25,-117.3"
         style="fill:#f9ddbf;fill-opacity:1;fill-rule:nonzero;stroke:none"
         id="path160" /><path
         d="M 10078,9546.5 9500.35,7850.3 H 7895.36 c 1063.18,362.9 1346.19,1469.4 1393.67,1696.2 H 10078"
         style="fill:#ed893e;fill-opacity:1;fill-rule:nonzero;stroke:none"
         id="path162" /><path
         d="m 3087.32,2660.3 c 30.45,0 56.49,21.4 61.7,50.6 l 302.44,1714.2 435.01,2465.4 121.65,689.4 -309.85,8.9 -53.76,-400.2 -377.46,-2812.5 -223.78,-1667 c -3.44,-25.9 17.21,-48.8 44.05,-48.8"
         style="fill:#95c0f4;fill-opacity:1;fill-rule:nonzero;stroke:none"
         id="path164" /><path
         d="m 3644.51,7188.6 c 200.74,-88.6 241.96,-298.1 241.96,-298.1 l 121.65,689.4 -309.85,8.9 -53.76,-400.2"
         style="fill:#78acea;fill-opacity:1;fill-rule:nonzero;stroke:none"
         id="path166" /><path
         d="m 10794.1,2660.3 c -30.5,0 -56.5,21.4 -61.7,50.6 l -302.5,1714.2 -435,2465.4 -121.64,689.4 309.84,8.9 53.8,-400.2 377.4,-2812.5 223.8,-1667 c 3.4,-25.9 -17.2,-48.8 -44,-48.8"
         style="fill:#95c0f4;fill-opacity:1;fill-rule:nonzero;stroke:none"
         id="path168" /><path
         d="m 10236.9,7188.6 c -200.8,-88.6 -242,-298.1 -242,-298.1 l -121.64,689.4 309.84,8.9 53.8,-400.2"
         style="fill:#78acea;fill-opacity:1;fill-rule:nonzero;stroke:none"
         id="path170" /><path
         d="m 2880.6,7309.3 h 7934.6 c 103.9,0 189,85 189,189 v 163.3 c 0,104 -85.1,189 -189,189 H 2880.6 c -103.95,0 -189,-85 -189,-189 v -163.3 c 0,-104 85.05,-189 189,-189"
         style="fill:#78acea;fill-opacity:1;fill-rule:nonzero;stroke:none"
         id="path172" /><path
         d="M 28499,2589.1 H 1235.79 c -17.03,0 -30.96,14 -30.96,31 v 10.6 c 0,17 13.93,30.9 30.96,30.9 H 28499 c 17.1,0 31,-13.9 31,-30.9 v -10.6 c 0,-17 -13.9,-31 -31,-31"
         style="fill:#2e3552;fill-opacity:1;fill-rule:nonzero;stroke:none"
         id="path174" /><path
         d="m 21342.2,11494 c 0,0 -110.7,357.4 -173.6,395.8 -62.9,38.4 -325.2,167.7 -340.8,132.8 -15.6,-35 141.6,-204.7 176.5,-261.4 35,-56.6 52.4,-112.5 28,-88 -24.5,24.4 -157.2,106.2 -171.2,88 -14,-18.2 66.4,-88 104.8,-143.9 38.4,-55.9 80.4,-150.3 216.6,-171.3 136.3,-20.9 159.7,48 159.7,48"
         style="fill:#ffb27d;fill-opacity:1;fill-rule:nonzero;stroke:none"
         id="path176" /><path
         d="m 25380,8485 c 0,0 -33.2,-322.8 -69.6,-383.8 -36.4,-61.1 -191.6,-256.2 -257.6,-294.5 -66.1,-38.3 40.3,257.1 26.8,314.6 -13.4,57.4 -54.3,-104.9 -83.5,-108.7 -29.1,-3.9 -21.6,142.3 -22.6,195.5 -1.1,53.2 141.7,184.4 192,297.7 50.3,113.2 214.5,-20.8 214.5,-20.8"
         style="fill:#ffb27d;fill-opacity:1;fill-rule:nonzero;stroke:none"
         id="path178" /><path
         d="m 24367.8,11797.1 c 0,0 -268.5,-1317.4 -1745.6,-1747.8 -461.1,-134.4 -1508.6,1383.6 -1508.6,1383.6 0,0 36.9,140 267.6,107.8 0,0 1019.9,-675.2 1148.3,-748.6 114,-65.1 863.3,836.7 1204.9,982.2 341.5,145.4 633.4,22.8 633.4,22.8"
         style="fill:#233862;fill-opacity:1;fill-rule:nonzero;stroke:none"
         id="path180" /><path
         d="m 26131.2,3515.4 c 0,0 183.3,-167.3 147.5,-286.1 -35.8,-118.8 -201.1,-198 -223.5,-343.2 -22.3,-145.3 -111.7,-224.5 -192.1,-224.5 -80.5,0 -383.6,0 -383.6,0 0,0 -59.2,102.2 83.8,133 143,30.8 197,201.5 188,359.9 -8.9,158.4 13.4,369.7 13.4,369.7 l 303.9,70.4 62.6,-79.2"
         style="fill:#233862;fill-opacity:1;fill-rule:nonzero;stroke:none"
         id="path182" /><path
         d="m 23883.1,3082.9 c 0,0 32.9,-380.6 -47.5,-420.2 l -1029.6,2.1 c 0,0 0,118.8 165.4,145.2 165.4,26.4 455.9,123.2 505,338.9 49.2,215.6 406.7,-66 406.7,-66"
         style="fill:#233862;fill-opacity:1;fill-rule:nonzero;stroke:none"
         id="path184" /><path
         d="m 23013.9,8458.8 c 0,0 54.3,-667.1 118.1,-1469 86.8,-1089.3 191.1,-2427.3 201.4,-2680.8 17.9,-440.2 89.5,-1144.3 89.5,-1144.3 0,0 169.7,-167.2 509.5,-96.7 0,0 302.7,1005.1 389.2,2068.5 1.3,17.4 2.7,35 4,52.5 80.5,1082.6 205.6,3362.3 205.6,3362.3 l -1517.3,-92.5"
         style="fill:#f99746;fill-opacity:1;fill-rule:nonzero;stroke:none"
         id="path186" /><path
         d="m 23013.9,8458.8 c 0,0 54.3,-667.1 118.1,-1469 l 1189.6,-1853.3 c 1.3,17.4 2.7,35 4,52.5 80.5,1082.6 205.6,3362.3 205.6,3362.3 l -1517.3,-92.5"
         style="fill:#ed7d2b;fill-opacity:1;fill-rule:nonzero;stroke:none"
         id="path188" /><path
         d="m 23261.9,8379.6 c 0,0 978.8,-2416 1622.4,-3551.4 C 25527.9,3692.8 25729,3376 25729,3376 c 0,0 368.7,145.2 402.2,244.2 0,0 -246.1,2191.9 -677.1,2726.3 -243.5,301.9 -529.6,1208 -543,1524.8 -13.4,316.9 -87.2,944 -87.2,944 l -1562,-435.7"
         style="fill:#f99746;fill-opacity:1;fill-rule:nonzero;stroke:none"
         id="path190" /><path
         d="m 24549.7,12102.9 c 0,0 -662.3,-319.6 -1044.1,-201 0,0 94,118.5 258.5,206.8 -13.2,76.6 -23.5,143.1 -29.4,199.5 -16.1,130.1 -16.1,203.9 -16.1,203.9 l 255.5,200.9 242.3,192.4 c -19.1,-540.8 333.3,-802.5 333.3,-802.5"
         style="fill:#ffb27d;fill-opacity:1;fill-rule:nonzero;stroke:none"
         id="path192" /><path
         d="m 24898.7,8691.6 c 1.5,-40.6 -85.1,-86.8 -123.4,-104.1 -283.3,-124.4 -547.7,-211.1 -847.2,-240 -353.9,-36.2 -772.4,43.3 -916.4,40.4 -14.6,0 -27.9,5.8 -39.6,15.9 -10.3,7.3 -17.6,433.8 -10.3,970.3 0,21.5 0,43.2 1.5,64.9 v 7.3 c 2.9,209.6 10.3,429.4 20.5,649.2 20.6,482.9 58.9,948.5 123.4,1205.9 77.8,303.6 254.1,504.6 414.2,650.7 l 132,115.6 c 132.2,-26 271.7,-18.8 411.2,49.2 152.8,73.6 317.2,153.2 343.6,133 199.7,-146 334.8,-474.2 406.8,-893.6 0.4,-2.1 0.8,-4.1 1.1,-6.2 40.3,-239.8 60.6,-508.1 59.1,-789 0,-104.2 -2.9,-211.1 -8.8,-316.6 -29.4,-478.2 -9.7,-903.9 9.5,-1198.8 3.8,-58.3 7.7,-111.5 11,-159 5.9,-83.8 10.3,-148.9 11.8,-195.1"
         style="fill:#2a4e96;fill-opacity:1;fill-rule:nonzero;stroke:none"
         id="path194" /><path
         d="m 24875.9,9045.7 c -1097.7,1267.4 -416.7,2188.6 -416.7,2188.6 l 356.9,115.8 c 40.3,-239.8 60.6,-508.1 59.1,-789 0,-104.2 -2.9,-211.1 -8.8,-316.6 -29.4,-478.2 -9.7,-903.9 9.5,-1198.8"
         style="fill:#233862;fill-opacity:1;fill-rule:nonzero;stroke:none"
         id="path196" /><path
         d="m 24220.8,12698.6 c 0,0 -167.4,-305.1 -486.1,-390.4 -16.1,130.1 -16.1,203.9 -16.1,203.9 l 255.5,200.9 246.7,-14.4"
         style="fill:#ed985f;fill-opacity:1;fill-rule:nonzero;stroke:none"
         id="path198" /><path
         d="m 23602.1,12520.9 c 0,0 631.7,-103.4 691,285 59.4,388.4 180.8,636.7 -220,719.1 -400.9,82.4 -502.1,-54.2 -553.9,-179.1 -51.8,-124.9 -79.9,-788.1 82.9,-825"
         style="fill:#ffb27d;fill-opacity:1;fill-rule:nonzero;stroke:none"
         id="path200" /><path
         d="m 24522.8,13571.5 c 5.7,6.5 18.9,11.8 48.4,13.4 0,0 -23.6,14.8 -55,15.5 -6.2,41 -28,113.4 -98.4,131 0,0 37.8,-20.1 42.8,-63.7 -81.6,83.8 -256.5,144.8 -740.6,106.6 -638.1,-50.4 -427.8,-458.9 -345.2,-507.6 82.6,-48.7 290.5,84.8 444.4,72.6 153.9,-12.2 183.2,-234.6 235.4,-265.1 52.2,-30.6 31.7,23.4 102.4,55.3 70.6,32 77.3,-85.1 56.9,-161.2 -20.4,-76.1 76.7,-176.5 76.7,-176.5 0,0 0,0 98.1,105.6 98.1,105.7 190.5,553.1 145.9,648.5 -3.9,8.4 -7.8,17 -11.8,25.6"
         style="fill:#2c3a64;fill-opacity:1;fill-rule:nonzero;stroke:none"
         id="path202" /><path
         d="m 24408,12253.1 c 0,0 399.7,-189.3 591.3,-480.3 297.3,-451.4 641.9,-2096.4 648.3,-2248.8 6.4,-152.3 -251.5,-1227.8 -251.5,-1227.8 0,0 -261.6,17.3 -329,149.3 0,0 52.2,1105 19.1,1176 -33.1,71.1 -1090.4,1482.3 -971.5,1783.4 118.9,301.2 293.3,848.2 293.3,848.2"
         style="fill:#2a4e96;fill-opacity:1;fill-rule:nonzero;stroke:none"
         id="path204" /><path
         d="m 21092.8,9779.7 h -1576.5 c -137.2,0 -249.4,112.2 -249.4,249.4 v 70.4 c 0,137.2 112.2,249.4 249.4,249.4 h 1576.5 c 137.2,0 249.4,-112.2 249.4,-249.4 v -70.4 c 0,-137.2 -112.2,-249.4 -249.4,-249.4"
         style="fill:#fcecdb;fill-opacity:1;fill-rule:nonzero;stroke:none"
         id="path206" /><path
         d="m 20301.1,9939.9 c -11.1,0 -21.5,5.9 -27.1,15.5 l -82.8,141.7 c -8.8,15 -3.8,34.2 11.2,43 15,8.8 34.3,3.7 43,-11.3 l 53.2,-90.8 100.1,205.9 c 7.6,15.6 26.4,22.1 42,14.5 15.6,-7.6 22.1,-26.4 14.5,-42 l -125.8,-258.8 c -5.1,-10.5 -15.5,-17.2 -27.1,-17.7 h -1.2"
         style="fill:#f99746;fill-opacity:1;fill-rule:nonzero;stroke:none"
         id="path208" /><path
         d="m 20301.1,10234.4 c -95,0 -172.2,-77.2 -172.2,-172.2 0,-95 77.2,-172.3 172.2,-172.3 95,0 172.3,77.3 172.3,172.3 0,95 -77.3,172.2 -172.3,172.2 z m 0,-367.4 c -107.6,0 -195.1,87.6 -195.1,195.2 0,107.6 87.5,195.1 195.1,195.1 107.6,0 195.2,-87.5 195.2,-195.1 0,-107.6 -87.6,-195.2 -195.2,-195.2"
         style="fill:#f99746;fill-opacity:1;fill-rule:nonzero;stroke:none"
         id="path210" /><path
         d="M 11405.4,11824.2 H 9720.68 c -221.34,0 -402.44,-181.1 -402.44,-402.5 v -637.3 c 0,-101.2 37.9,-193.9 100.09,-264.8 l -100.09,-457.5 577.18,319.8 h 1509.98 c 221.3,0 402.4,181.1 402.4,402.5 v 637.3 c 0,221.4 -181.1,402.5 -402.4,402.5"
         style="fill:#d2e3fc;fill-opacity:1;fill-rule:nonzero;stroke:none"
         id="path212" /><path
         d="M 11437.1,11338.5 H 9690.55 c -35.96,0 -65.37,29.5 -65.37,65.4 0,36 29.41,65.4 65.37,65.4 h 1746.55 c 36,0 65.4,-29.4 65.4,-65.4 0,-35.9 -29.4,-65.4 -65.4,-65.4"
         style="fill:#b7d3f3;fill-opacity:1;fill-rule:nonzero;stroke:none"
         id="path214" /><path
         d="M 11437.1,11052.5 H 9690.55 c -35.96,0 -65.37,29.4 -65.37,65.4 0,35.9 29.41,65.3 65.37,65.3 h 1746.55 c 36,0 65.4,-29.4 65.4,-65.3 0,-36 -29.4,-65.4 -65.4,-65.4"
         style="fill:#b7d3f3;fill-opacity:1;fill-rule:nonzero;stroke:none"
         id="path216" /><path
         d="M 11437.1,10777.2 H 9690.55 c -35.96,0 -65.37,29.4 -65.37,65.3 0,36 29.41,65.4 65.37,65.4 h 1746.55 c 36,0 65.4,-29.4 65.4,-65.4 0,-35.9 -29.4,-65.3 -65.4,-65.3"
         style="fill:#b7d3f3;fill-opacity:1;fill-rule:nonzero;stroke:none"
         id="path218" /></g></g></svg>
